<svg xmlns="http://www.w3.org/2000/svg" width="1130" height="535" viewBox="0 0 1130 535" role="img" aria-label="Client time to first token with RVV attention off and on for 2B and 4B models">
<rect width="1130" height="535" fill="#fff"/>
<text x="55" y="42" font-family="DejaVu Sans,Arial,sans-serif" font-size="22" font-weight="700" fill="#172133">256-bit RVV attention lowers cold first-token latency</text>
<text x="55" y="65" font-family="DejaVu Sans,Arial,sans-serif" font-size="13" fill="#526071">MUSE-Pi-Pro · F16 KV · 32 generated tokens · 128–8k: two ABBA arms; 12k: one integrated pair</text>
<text x="75" y="103" font-family="DejaVu Sans,Arial,sans-serif" font-size="18" font-weight="700" fill="#2563eb">2B</text>
<line x1="75" y1="369.5" x2="555" y2="369.5" stroke="#e7ebf0"/>
<text x="65" y="373.5" text-anchor="end" font-family="DejaVu Sans,Arial,sans-serif" font-size="12" fill="#526071">10</text>
<line x1="75" y1="272.8" x2="555" y2="272.8" stroke="#e7ebf0"/>
<text x="65" y="276.8" text-anchor="end" font-family="DejaVu Sans,Arial,sans-serif" font-size="12" fill="#526071">100</text>
<line x1="75" y1="176.1" x2="555" y2="176.1" stroke="#e7ebf0"/>
<text x="65" y="180.1" text-anchor="end" font-family="DejaVu Sans,Arial,sans-serif" font-size="12" fill="#526071">1000</text>
<line x1="75" y1="420" x2="555" y2="420" stroke="#64748b"/>
<line x1="75" y1="130" x2="75" y2="420" stroke="#64748b"/>
<text x="130" y="444" text-anchor="middle" font-family="DejaVu Sans,Arial,sans-serif" font-size="12" fill="#3e4b5c">128</text>
<text x="250" y="444" text-anchor="middle" font-family="DejaVu Sans,Arial,sans-serif" font-size="12" fill="#3e4b5c">2k</text>
<text x="370" y="444" text-anchor="middle" font-family="DejaVu Sans,Arial,sans-serif" font-size="12" fill="#3e4b5c">8k</text>
<text x="490" y="444" text-anchor="middle" font-family="DejaVu Sans,Arial,sans-serif" font-size="12" fill="#3e4b5c">12k</text>
<path d="M130,394.6 L250,267.4 L370,182.3 L490,155.0" fill="none" stroke="#94a3b8" stroke-width="3" stroke-dasharray="6 4"/>
<g><circle cx="130" cy="394.6" r="5" fill="#94a3b8"/><title>2B 128 tokens RVV off: 5.50 s</title></g>
<g><circle cx="250" cy="267.4" r="5" fill="#94a3b8"/><title>2B 2048 tokens RVV off: 113.78 s</title></g>
<g><circle cx="370" cy="182.3" r="5" fill="#94a3b8"/><title>2B 8192 tokens RVV off: 862.62 s</title></g>
<g><rect x="485" y="150.0" width="10" height="10" fill="#94a3b8"/><title>2B 12288 tokens RVV off: 1653.70 s</title></g>
<path d="M130,395.0 L250,276.1 L370,210.8 L490,188.7" fill="none" stroke="#2563eb" stroke-width="3" stroke-dasharray="none"/>
<g><circle cx="130" cy="395.0" r="5" fill="#2563eb"/><title>2B 128 tokens RVV on: 5.44 s</title></g>
<g><circle cx="250" cy="276.1" r="5" fill="#2563eb"/><title>2B 2048 tokens RVV on: 92.45 s</title></g>
<g><circle cx="370" cy="210.8" r="5" fill="#2563eb"/><title>2B 8192 tokens RVV on: 438.05 s</title></g>
<g><rect x="485" y="183.7" width="10" height="10" fill="#2563eb"/><title>2B 12288 tokens RVV on: 741.47 s</title></g>
<text x="310" y="469" text-anchor="middle" font-family="DejaVu Sans,Arial,sans-serif" font-size="12" fill="#526071">Prompt tokens</text>
<text x="620" y="103" font-family="DejaVu Sans,Arial,sans-serif" font-size="18" font-weight="700" fill="#ea580c">4B</text>
<line x1="620" y1="410.9" x2="1100" y2="410.9" stroke="#e7ebf0"/>
<text x="610" y="414.9" text-anchor="end" font-family="DejaVu Sans,Arial,sans-serif" font-size="12" fill="#526071">10</text>
<line x1="620" y1="317.3" x2="1100" y2="317.3" stroke="#e7ebf0"/>
<text x="610" y="321.3" text-anchor="end" font-family="DejaVu Sans,Arial,sans-serif" font-size="12" fill="#526071">100</text>
<line x1="620" y1="223.6" x2="1100" y2="223.6" stroke="#e7ebf0"/>
<text x="610" y="227.6" text-anchor="end" font-family="DejaVu Sans,Arial,sans-serif" font-size="12" fill="#526071">1000</text>
<line x1="620" y1="420" x2="1100" y2="420" stroke="#64748b"/>
<line x1="620" y1="130" x2="620" y2="420" stroke="#64748b"/>
<text x="675" y="444" text-anchor="middle" font-family="DejaVu Sans,Arial,sans-serif" font-size="12" fill="#3e4b5c">128</text>
<text x="795" y="444" text-anchor="middle" font-family="DejaVu Sans,Arial,sans-serif" font-size="12" fill="#3e4b5c">2k</text>
<text x="915" y="444" text-anchor="middle" font-family="DejaVu Sans,Arial,sans-serif" font-size="12" fill="#3e4b5c">8k</text>
<text x="1035" y="444" text-anchor="middle" font-family="DejaVu Sans,Arial,sans-serif" font-size="12" fill="#3e4b5c">12k</text>
<path d="M675,398.2 L795,267.0 L915,176.4" fill="none" stroke="#94a3b8" stroke-width="3" stroke-dasharray="6 4"/>
<g><circle cx="675" cy="398.2" r="5" fill="#94a3b8"/><title>4B 128 tokens RVV off: 13.68 s</title></g>
<g><circle cx="795" cy="267.0" r="5" fill="#94a3b8"/><title>4B 2048 tokens RVV off: 343.95 s</title></g>
<g><circle cx="915" cy="176.4" r="5" fill="#94a3b8"/><title>4B 8192 tokens RVV off: 3194.99 s</title></g>
<path d="M675,398.9 L795,283.1 L915,217.9" fill="none" stroke="#ea580c" stroke-width="3" stroke-dasharray="none"/>
<g><circle cx="675" cy="398.9" r="5" fill="#ea580c"/><title>4B 128 tokens RVV on: 13.43 s</title></g>
<g><circle cx="795" cy="283.1" r="5" fill="#ea580c"/><title>4B 2048 tokens RVV on: 231.54 s</title></g>
<g><circle cx="915" cy="217.9" r="5" fill="#ea580c"/><title>4B 8192 tokens RVV on: 1150.42 s</title></g>
<text x="1035" y="365" text-anchor="middle" font-family="DejaVu Sans,Arial,sans-serif" font-size="12" fill="#64748b">pending</text>
<text x="855" y="469" text-anchor="middle" font-family="DejaVu Sans,Arial,sans-serif" font-size="12" fill="#526071">Prompt tokens</text>
<text x="43" y="305" transform="rotate(-90 43 305)" text-anchor="middle" font-family="DejaVu Sans,Arial,sans-serif" font-size="13" fill="#3e4b5c">Client TTFT (s, log scale)</text>
<line x1="76" y1="500" x2="108" y2="500" stroke="#94a3b8" stroke-width="3" stroke-dasharray="6 4"/>
<text x="116" y="505" font-family="DejaVu Sans,Arial,sans-serif" font-size="13" fill="#334155">RVV off</text>
<line x1="210" y1="500" x2="242" y2="500" stroke="#2563eb" stroke-width="3"/>
<text x="250" y="505" font-family="DejaVu Sans,Arial,sans-serif" font-size="13" fill="#334155">RVV on (model color)</text>
<text x="1080" y="505" text-anchor="end" font-family="DejaVu Sans,Arial,sans-serif" font-size="12" fill="#526071">Squares: single 12k pair; no extrapolation</text>
</svg>
